<svg xmlns="http://www.w3.org/2000/svg" width="1200" height="390" viewBox="0 0 1200 390" role="img">
  <title>MY CODE, LATELY</title>
<desc>565 GitHub contributions, 2026-06-10 to 2026-10-07. UPDATED 2026-10-07 21:58 UTC</desc>
  <rect x="17" y="17" width="1160" height="350" rx="16" fill="#0A0A0A"/>
  <rect x="9" y="9" width="1160" height="350" rx="16" fill="#F5F0E6" stroke="#0A0A0A" stroke-width="3"/>
  <text x="48" y="67" fill="#0A0A0A" font-family="Arial, sans-serif" font-size="34" font-weight="800" letter-spacing="1">MY CODE, LATELY</text>
  <text x="49" y="93" fill="#7A7570" font-family="monospace" font-size="12" font-weight="700" letter-spacing="1.8">GITHUB CONTRIBUTION ACTIVITY · 120 DAYS</text>
  <rect x="930" y="42" width="194" height="38" rx="6" fill="#FFC700" stroke="#0A0A0A" stroke-width="2"/>
  <text x="1027" y="66" text-anchor="middle" fill="#0A0A0A" font-family="monospace" font-size="12" font-weight="700">565 CONTRIBUTIONS</text>
  <g>
    <polygon points="160.3,165.2 366.3,171.2 277.0,267.3 71.0,261.3" fill="#EAE4D4" stroke="#7A7570" stroke-width="1.5" opacity="0.8"/>
    <polygon points="368.3,173.2 574.3,179.2 485.0,275.3 279.0,269.3" fill="#EAE4D4" stroke="#7A7570" stroke-width="1.5" opacity="0.8"/>
    <polygon points="576.3,181.2 830.3,189.2 741.0,285.3 487.0,277.3" fill="#EAE4D4" stroke="#7A7570" stroke-width="1.5" opacity="0.8"/>
    <polygon points="832.3,191.2 1038.3,197.2 949.0,293.3 743.0,287.3" fill="#EAE4D4" stroke="#7A7570" stroke-width="1.5" opacity="0.8"/>
    <polygon points="1040.3,199.2 1102.3,199.2 1013.0,295.3 951.0,295.3" fill="#EAE4D4" stroke="#7A7570" stroke-width="1.5" opacity="0.8"/>
  </g>
  <g>
<g data-date="2026-06-14" data-count="10"><title>2026-06-14: 10 contributions</title>
    <polygon points="239.3,180.8 263.3,170.0 263.3,185.0 239.3,195.8" fill="#FFE066" stroke="#0A0A0A" stroke-width="0.7"/>
    <polygon points="215.3,170.0 239.3,180.8 239.3,195.8 215.3,185.0" fill="#FFE066" stroke="#0A0A0A" stroke-width="0.7"/>
    <polygon points="239.3,159.2 263.3,170.0 239.3,180.8 215.3,170.0" fill="#FFE066" stroke="#0A0A0A" stroke-width="0.7"/>
</g>
<g data-date="2026-06-15" data-count="10"><title>2026-06-15: 10 contributions</title>
    <polygon points="224.4,190.9 248.4,180.1 248.4,195.1 224.4,205.9" fill="#FFE066" stroke="#0A0A0A" stroke-width="0.7"/>
    <polygon points="200.4,180.1 224.4,190.9 224.4,205.9 200.4,195.1" fill="#FFE066" stroke="#0A0A0A" stroke-width="0.7"/>
    <polygon points="224.4,169.3 248.4,180.1 224.4,190.9 200.4,180.1" fill="#FFE066" stroke="#0A0A0A" stroke-width="0.7"/>
</g>
<g data-date="2026-06-21" data-count="15"><title>2026-06-21: 15 contributions</title>
    <polygon points="287.3,182.8 311.3,172.0 311.3,187.0 287.3,197.8" fill="#FFE066" stroke="#0A0A0A" stroke-width="0.7"/>
    <polygon points="263.3,172.0 287.3,182.8 287.3,197.8 263.3,187.0" fill="#FFE066" stroke="#0A0A0A" stroke-width="0.7"/>
    <polygon points="287.3,161.2 311.3,172.0 287.3,182.8 263.3,172.0" fill="#FFE066" stroke="#0A0A0A" stroke-width="0.7"/>
</g>
<g data-date="2026-06-10" data-count="20"><title>2026-06-10: 20 contributions</title>
    <polygon points="146.6,201.5 170.6,190.7 170.6,213.2 146.6,224.0" fill="#FFC700" stroke="#0A0A0A" stroke-width="0.7"/>
    <polygon points="122.6,190.7 146.6,201.5 146.6,224.0 122.6,213.2" fill="#FFC700" stroke="#0A0A0A" stroke-width="0.7"/>
    <polygon points="146.6,179.9 170.6,190.7 146.6,201.5 122.6,190.7" fill="#FFC700" stroke="#0A0A0A" stroke-width="0.7"/>
</g>
<g data-date="2026-06-16" data-count="5"><title>2026-06-16: 5 contributions</title>
    <polygon points="209.5,208.5 233.5,197.7 233.5,205.2 209.5,216.0" fill="#FFF3B5" stroke="#0A0A0A" stroke-width="0.7"/>
    <polygon points="185.5,197.7 209.5,208.5 209.5,216.0 185.5,205.2" fill="#FFF3B5" stroke="#0A0A0A" stroke-width="0.7"/>
    <polygon points="209.5,186.9 233.5,197.7 209.5,208.5 185.5,197.7" fill="#FFF3B5" stroke="#0A0A0A" stroke-width="0.7"/>
</g>
<g data-date="2026-06-22" data-count="2"><title>2026-06-22: 2 contributions</title>
    <polygon points="272.4,200.4 296.4,189.6 296.4,197.1 272.4,207.9" fill="#FFF3B5" stroke="#0A0A0A" stroke-width="0.7"/>
    <polygon points="248.4,189.6 272.4,200.4 272.4,207.9 248.4,197.1" fill="#FFF3B5" stroke="#0A0A0A" stroke-width="0.7"/>
    <polygon points="272.4,178.8 296.4,189.6 272.4,200.4 248.4,189.6" fill="#FFF3B5" stroke="#0A0A0A" stroke-width="0.7"/>
</g>
<g data-date="2026-06-28" data-count="0"><title>2026-06-28: 0 contributions</title>
    <polygon points="335.3,178.2 359.3,189.0 335.3,199.8 311.3,189.0" fill="#EAE4D4" stroke="#0A0A0A" stroke-width="0.7"/>
</g>
<g data-date="2026-06-11" data-count="23"><title>2026-06-11: 23 contributions</title>
    <polygon points="131.8,211.6 155.8,200.8 155.8,223.3 131.8,234.1" fill="#FFC700" stroke="#0A0A0A" stroke-width="0.7"/>
    <polygon points="107.8,200.8 131.8,211.6 131.8,234.1 107.8,223.3" fill="#FFC700" stroke="#0A0A0A" stroke-width="0.7"/>
    <polygon points="131.8,190.0 155.8,200.8 131.8,211.6 107.8,200.8" fill="#FFC700" stroke="#0A0A0A" stroke-width="0.7"/>
</g>
<g data-date="2026-06-17" data-count="0"><title>2026-06-17: 0 contributions</title>
    <polygon points="194.6,204.4 218.6,215.2 194.6,226.0 170.6,215.2" fill="#EAE4D4" stroke="#0A0A0A" stroke-width="0.7"/>
</g>
<g data-date="2026-06-23" data-count="12"><title>2026-06-23: 12 contributions</title>
    <polygon points="257.5,203.0 281.5,192.2 281.5,207.2 257.5,218.0" fill="#FFE066" stroke="#0A0A0A" stroke-width="0.7"/>
    <polygon points="233.5,192.2 257.5,203.0 257.5,218.0 233.5,207.2" fill="#FFE066" stroke="#0A0A0A" stroke-width="0.7"/>
    <polygon points="257.5,181.4 281.5,192.2 257.5,203.0 233.5,192.2" fill="#FFE066" stroke="#0A0A0A" stroke-width="0.7"/>
</g>
<g data-date="2026-06-29" data-count="3"><title>2026-06-29: 3 contributions</title>
    <polygon points="320.4,202.4 344.4,191.6 344.4,199.1 320.4,209.9" fill="#FFF3B5" stroke="#0A0A0A" stroke-width="0.7"/>
    <polygon points="296.4,191.6 320.4,202.4 320.4,209.9 296.4,199.1" fill="#FFF3B5" stroke="#0A0A0A" stroke-width="0.7"/>
    <polygon points="320.4,180.8 344.4,191.6 320.4,202.4 296.4,191.6" fill="#FFF3B5" stroke="#0A0A0A" stroke-width="0.7"/>
</g>
<g data-date="2026-07-05" data-count="2"><title>2026-07-05: 2 contributions</title>
    <polygon points="399.3,194.3 423.3,183.5 423.3,191.0 399.3,201.8" fill="#FFF3B5" stroke="#0A0A0A" stroke-width="0.7"/>
    <polygon points="375.3,183.5 399.3,194.3 399.3,201.8 375.3,191.0" fill="#FFF3B5" stroke="#0A0A0A" stroke-width="0.7"/>
    <polygon points="399.3,172.7 423.3,183.5 399.3,194.3 375.3,183.5" fill="#FFF3B5" stroke="#0A0A0A" stroke-width="0.7"/>
</g>
<g data-date="2026-06-12" data-count="30"><title>2026-06-12: 30 contributions</title>
    <polygon points="116.9,214.2 140.9,203.4 140.9,233.4 116.9,244.2" fill="#E5A800" stroke="#0A0A0A" stroke-width="0.7"/>
    <polygon points="92.9,203.4 116.9,214.2 116.9,244.2 92.9,233.4" fill="#E5A800" stroke="#0A0A0A" stroke-width="0.7"/>
    <polygon points="116.9,192.6 140.9,203.4 116.9,214.2 92.9,203.4" fill="#E5A800" stroke="#0A0A0A" stroke-width="0.7"/>
</g>
<g data-date="2026-06-18" data-count="2"><title>2026-06-18: 2 contributions</title>
    <polygon points="179.8,228.6 203.8,217.8 203.8,225.3 179.8,236.1" fill="#FFF3B5" stroke="#0A0A0A" stroke-width="0.7"/>
    <polygon points="155.8,217.8 179.8,228.6 179.8,236.1 155.8,225.3" fill="#FFF3B5" stroke="#0A0A0A" stroke-width="0.7"/>
    <polygon points="179.8,207.0 203.8,217.8 179.8,228.6 155.8,217.8" fill="#FFF3B5" stroke="#0A0A0A" stroke-width="0.7"/>
</g>
<g data-date="2026-06-24" data-count="4"><title>2026-06-24: 4 contributions</title>
    <polygon points="242.6,220.5 266.6,209.7 266.6,217.2 242.6,228.0" fill="#FFF3B5" stroke="#0A0A0A" stroke-width="0.7"/>
    <polygon points="218.6,209.7 242.6,220.5 242.6,228.0 218.6,217.2" fill="#FFF3B5" stroke="#0A0A0A" stroke-width="0.7"/>
    <polygon points="242.6,198.9 266.6,209.7 242.6,220.5 218.6,209.7" fill="#FFF3B5" stroke="#0A0A0A" stroke-width="0.7"/>
</g>
<g data-date="2026-06-30" data-count="6"><title>2026-06-30: 6 contributions</title>
    <polygon points="305.5,212.5 329.5,201.7 329.5,209.2 305.5,220.0" fill="#FFF3B5" stroke="#0A0A0A" stroke-width="0.7"/>
    <polygon points="281.5,201.7 305.5,212.5 305.5,220.0 281.5,209.2" fill="#FFF3B5" stroke="#0A0A0A" stroke-width="0.7"/>
    <polygon points="305.5,190.9 329.5,201.7 305.5,212.5 281.5,201.7" fill="#FFF3B5" stroke="#0A0A0A" stroke-width="0.7"/>
</g>
<g data-date="2026-07-06" data-count="0"><title>2026-07-06: 0 contributions</title>
    <polygon points="384.4,190.3 408.4,201.1 384.4,211.9 360.4,201.1" fill="#EAE4D4" stroke="#0A0A0A" stroke-width="0.7"/>
</g>
<g data-date="2026-07-12" data-count="0"><title>2026-07-12: 0 contributions</title>
    <polygon points="447.3,182.2 471.3,193.0 447.3,203.8 423.3,193.0" fill="#EAE4D4" stroke="#0A0A0A" stroke-width="0.7"/>
</g>
<g data-date="2026-06-13" data-count="17"><title>2026-06-13: 17 contributions</title>
    <polygon points="102.0,231.8 126.0,221.0 126.0,243.5 102.0,254.3" fill="#FFC700" stroke="#0A0A0A" stroke-width="0.7"/>
    <polygon points="78.0,221.0 102.0,231.8 102.0,254.3 78.0,243.5" fill="#FFC700" stroke="#0A0A0A" stroke-width="0.7"/>
    <polygon points="102.0,210.2 126.0,221.0 102.0,231.8 78.0,221.0" fill="#FFC700" stroke="#0A0A0A" stroke-width="0.7"/>
</g>
<g data-date="2026-06-19" data-count="2"><title>2026-06-19: 2 contributions</title>
    <polygon points="164.9,238.7 188.9,227.9 188.9,235.4 164.9,246.2" fill="#FFF3B5" stroke="#0A0A0A" stroke-width="0.7"/>
    <polygon points="140.9,227.9 164.9,238.7 164.9,246.2 140.9,235.4" fill="#FFF3B5" stroke="#0A0A0A" stroke-width="0.7"/>
    <polygon points="164.9,217.1 188.9,227.9 164.9,238.7 140.9,227.9" fill="#FFF3B5" stroke="#0A0A0A" stroke-width="0.7"/>
</g>
<g data-date="2026-06-25" data-count="2"><title>2026-06-25: 2 contributions</title>
    <polygon points="227.8,230.6 251.8,219.8 251.8,227.3 227.8,238.1" fill="#FFF3B5" stroke="#0A0A0A" stroke-width="0.7"/>
    <polygon points="203.8,219.8 227.8,230.6 227.8,238.1 203.8,227.3" fill="#FFF3B5" stroke="#0A0A0A" stroke-width="0.7"/>
    <polygon points="227.8,209.0 251.8,219.8 227.8,230.6 203.8,219.8" fill="#FFF3B5" stroke="#0A0A0A" stroke-width="0.7"/>
</g>
<g data-date="2026-07-01" data-count="7"><title>2026-07-01: 7 contributions</title>
    <polygon points="290.6,222.5 314.6,211.7 314.6,219.2 290.6,230.0" fill="#FFF3B5" stroke="#0A0A0A" stroke-width="0.7"/>
    <polygon points="266.6,211.7 290.6,222.5 290.6,230.0 266.6,219.2" fill="#FFF3B5" stroke="#0A0A0A" stroke-width="0.7"/>
    <polygon points="290.6,200.9 314.6,211.7 290.6,222.5 266.6,211.7" fill="#FFF3B5" stroke="#0A0A0A" stroke-width="0.7"/>
</g>
<g data-date="2026-07-07" data-count="0"><title>2026-07-07: 0 contributions</title>
    <polygon points="369.5,200.4 393.5,211.2 369.5,222.0 345.5,211.2" fill="#EAE4D4" stroke="#0A0A0A" stroke-width="0.7"/>
</g>
<g data-date="2026-07-13" data-count="2"><title>2026-07-13: 2 contributions</title>
    <polygon points="432.4,206.4 456.4,195.6 456.4,203.1 432.4,213.9" fill="#FFF3B5" stroke="#0A0A0A" stroke-width="0.7"/>
    <polygon points="408.4,195.6 432.4,206.4 432.4,213.9 408.4,203.1" fill="#FFF3B5" stroke="#0A0A0A" stroke-width="0.7"/>
    <polygon points="432.4,184.8 456.4,195.6 432.4,206.4 408.4,195.6" fill="#FFF3B5" stroke="#0A0A0A" stroke-width="0.7"/>
</g>
<g data-date="2026-07-19" data-count="0"><title>2026-07-19: 0 contributions</title>
    <polygon points="495.3,184.2 519.3,195.0 495.3,205.8 471.3,195.0" fill="#EAE4D4" stroke="#0A0A0A" stroke-width="0.7"/>
</g>
<g data-date="2026-06-20" data-count="6"><title>2026-06-20: 6 contributions</title>
    <polygon points="150.0,248.8 174.0,238.0 174.0,245.5 150.0,256.3" fill="#FFF3B5" stroke="#0A0A0A" stroke-width="0.7"/>
    <polygon points="126.0,238.0 150.0,248.8 150.0,256.3 126.0,245.5" fill="#FFF3B5" stroke="#0A0A0A" stroke-width="0.7"/>
    <polygon points="150.0,227.2 174.0,238.0 150.0,248.8 126.0,238.0" fill="#FFF3B5" stroke="#0A0A0A" stroke-width="0.7"/>
</g>
<g data-date="2026-06-26" data-count="1"><title>2026-06-26: 1 contributions</title>
    <polygon points="212.9,240.7 236.9,229.9 236.9,237.4 212.9,248.2" fill="#FFF3B5" stroke="#0A0A0A" stroke-width="0.7"/>
    <polygon points="188.9,229.9 212.9,240.7 212.9,248.2 188.9,237.4" fill="#FFF3B5" stroke="#0A0A0A" stroke-width="0.7"/>
    <polygon points="212.9,219.1 236.9,229.9 212.9,240.7 188.9,229.9" fill="#FFF3B5" stroke="#0A0A0A" stroke-width="0.7"/>
</g>
<g data-date="2026-07-02" data-count="31"><title>2026-07-02: 31 contributions</title>
    <polygon points="275.8,210.1 299.8,199.3 299.8,229.3 275.8,240.1" fill="#E5A800" stroke="#0A0A0A" stroke-width="0.7"/>
    <polygon points="251.8,199.3 275.8,210.1 275.8,240.1 251.8,229.3" fill="#E5A800" stroke="#0A0A0A" stroke-width="0.7"/>
    <polygon points="275.8,188.5 299.8,199.3 275.8,210.1 251.8,199.3" fill="#E5A800" stroke="#0A0A0A" stroke-width="0.7"/>
</g>
<g data-date="2026-07-08" data-count="0"><title>2026-07-08: 0 contributions</title>
    <polygon points="354.6,210.4 378.6,221.2 354.6,232.0 330.6,221.2" fill="#EAE4D4" stroke="#0A0A0A" stroke-width="0.7"/>
</g>
<g data-date="2026-07-14" data-count="0"><title>2026-07-14: 0 contributions</title>
    <polygon points="417.5,202.4 441.5,213.2 417.5,224.0 393.5,213.2" fill="#EAE4D4" stroke="#0A0A0A" stroke-width="0.7"/>
</g>
<g data-date="2026-07-20" data-count="6"><title>2026-07-20: 6 contributions</title>
    <polygon points="480.4,208.4 504.4,197.6 504.4,205.1 480.4,215.9" fill="#FFF3B5" stroke="#0A0A0A" stroke-width="0.7"/>
    <polygon points="456.4,197.6 480.4,208.4 480.4,215.9 456.4,205.1" fill="#FFF3B5" stroke="#0A0A0A" stroke-width="0.7"/>
    <polygon points="480.4,186.8 504.4,197.6 480.4,208.4 456.4,197.6" fill="#FFF3B5" stroke="#0A0A0A" stroke-width="0.7"/>
</g>
<g data-date="2026-07-26" data-count="2"><title>2026-07-26: 2 contributions</title>
    <polygon points="543.3,200.3 567.3,189.5 567.3,197.0 543.3,207.8" fill="#FFF3B5" stroke="#0A0A0A" stroke-width="0.7"/>
    <polygon points="519.3,189.5 543.3,200.3 543.3,207.8 519.3,197.0" fill="#FFF3B5" stroke="#0A0A0A" stroke-width="0.7"/>
    <polygon points="543.3,178.7 567.3,189.5 543.3,200.3 519.3,189.5" fill="#FFF3B5" stroke="#0A0A0A" stroke-width="0.7"/>
</g>
<g data-date="2026-06-27" data-count="4"><title>2026-06-27: 4 contributions</title>
    <polygon points="198.0,250.8 222.0,240.0 222.0,247.5 198.0,258.3" fill="#FFF3B5" stroke="#0A0A0A" stroke-width="0.7"/>
    <polygon points="174.0,240.0 198.0,250.8 198.0,258.3 174.0,247.5" fill="#FFF3B5" stroke="#0A0A0A" stroke-width="0.7"/>
    <polygon points="198.0,229.2 222.0,240.0 198.0,250.8 174.0,240.0" fill="#FFF3B5" stroke="#0A0A0A" stroke-width="0.7"/>
</g>
<g data-date="2026-07-03" data-count="13"><title>2026-07-03: 13 contributions</title>
    <polygon points="260.9,235.2 284.9,224.4 284.9,239.4 260.9,250.2" fill="#FFE066" stroke="#0A0A0A" stroke-width="0.7"/>
    <polygon points="236.9,224.4 260.9,235.2 260.9,250.2 236.9,239.4" fill="#FFE066" stroke="#0A0A0A" stroke-width="0.7"/>
    <polygon points="260.9,213.6 284.9,224.4 260.9,235.2 236.9,224.4" fill="#FFE066" stroke="#0A0A0A" stroke-width="0.7"/>
</g>
<g data-date="2026-07-09" data-count="0"><title>2026-07-09: 0 contributions</title>
    <polygon points="339.8,220.5 363.8,231.3 339.8,242.1 315.8,231.3" fill="#EAE4D4" stroke="#0A0A0A" stroke-width="0.7"/>
</g>
<g data-date="2026-07-15" data-count="3"><title>2026-07-15: 3 contributions</title>
    <polygon points="402.6,226.5 426.6,215.7 426.6,223.2 402.6,234.0" fill="#FFF3B5" stroke="#0A0A0A" stroke-width="0.7"/>
    <polygon points="378.6,215.7 402.6,226.5 402.6,234.0 378.6,223.2" fill="#FFF3B5" stroke="#0A0A0A" stroke-width="0.7"/>
    <polygon points="402.6,204.9 426.6,215.7 402.6,226.5 378.6,215.7" fill="#FFF3B5" stroke="#0A0A0A" stroke-width="0.7"/>
</g>
<g data-date="2026-07-21" data-count="11"><title>2026-07-21: 11 contributions</title>
    <polygon points="465.5,211.0 489.5,200.2 489.5,215.2 465.5,226.0" fill="#FFE066" stroke="#0A0A0A" stroke-width="0.7"/>
    <polygon points="441.5,200.2 465.5,211.0 465.5,226.0 441.5,215.2" fill="#FFE066" stroke="#0A0A0A" stroke-width="0.7"/>
    <polygon points="465.5,189.4 489.5,200.2 465.5,211.0 441.5,200.2" fill="#FFE066" stroke="#0A0A0A" stroke-width="0.7"/>
</g>
<g data-date="2026-07-27" data-count="19"><title>2026-07-27: 19 contributions</title>
    <polygon points="528.4,195.4 552.4,184.6 552.4,207.1 528.4,217.9" fill="#FFC700" stroke="#0A0A0A" stroke-width="0.7"/>
    <polygon points="504.4,184.6 528.4,195.4 528.4,217.9 504.4,207.1" fill="#FFC700" stroke="#0A0A0A" stroke-width="0.7"/>
    <polygon points="528.4,173.8 552.4,184.6 528.4,195.4 504.4,184.6" fill="#FFC700" stroke="#0A0A0A" stroke-width="0.7"/>
</g>
<g data-date="2026-08-02" data-count="0"><title>2026-08-02: 0 contributions</title>
    <polygon points="607.3,188.2 631.3,199.0 607.3,209.8 583.3,199.0" fill="#EAE4D4" stroke="#0A0A0A" stroke-width="0.7"/>
</g>
<g data-date="2026-07-04" data-count="0"><title>2026-07-04: 0 contributions</title>
    <polygon points="246.0,238.7 270.0,249.5 246.0,260.3 222.0,249.5" fill="#EAE4D4" stroke="#0A0A0A" stroke-width="0.7"/>
</g>
<g data-date="2026-07-10" data-count="0"><title>2026-07-10: 0 contributions</title>
    <polygon points="324.9,230.6 348.9,241.4 324.9,252.2 300.9,241.4" fill="#EAE4D4" stroke="#0A0A0A" stroke-width="0.7"/>
</g>
<g data-date="2026-07-16" data-count="0"><title>2026-07-16: 0 contributions</title>
    <polygon points="387.8,222.5 411.8,233.3 387.8,244.1 363.8,233.3" fill="#EAE4D4" stroke="#0A0A0A" stroke-width="0.7"/>
</g>
<g data-date="2026-07-22" data-count="14"><title>2026-07-22: 14 contributions</title>
    <polygon points="450.6,221.0 474.6,210.2 474.6,225.2 450.6,236.0" fill="#FFE066" stroke="#0A0A0A" stroke-width="0.7"/>
    <polygon points="426.6,210.2 450.6,221.0 450.6,236.0 426.6,225.2" fill="#FFE066" stroke="#0A0A0A" stroke-width="0.7"/>
    <polygon points="450.6,199.4 474.6,210.2 450.6,221.0 426.6,210.2" fill="#FFE066" stroke="#0A0A0A" stroke-width="0.7"/>
</g>
<g data-date="2026-07-28" data-count="3"><title>2026-07-28: 3 contributions</title>
    <polygon points="513.5,220.5 537.5,209.7 537.5,217.2 513.5,228.0" fill="#FFF3B5" stroke="#0A0A0A" stroke-width="0.7"/>
    <polygon points="489.5,209.7 513.5,220.5 513.5,228.0 489.5,217.2" fill="#FFF3B5" stroke="#0A0A0A" stroke-width="0.7"/>
    <polygon points="513.5,198.9 537.5,209.7 513.5,220.5 489.5,209.7" fill="#FFF3B5" stroke="#0A0A0A" stroke-width="0.7"/>
</g>
<g data-date="2026-08-03" data-count="0"><title>2026-08-03: 0 contributions</title>
    <polygon points="592.4,198.3 616.4,209.1 592.4,219.9 568.4,209.1" fill="#EAE4D4" stroke="#0A0A0A" stroke-width="0.7"/>
</g>
<g data-date="2026-08-09" data-count="7"><title>2026-08-09: 7 contributions</title>
    <polygon points="655.3,204.3 679.3,193.5 679.3,201.0 655.3,211.8" fill="#FFF3B5" stroke="#0A0A0A" stroke-width="0.7"/>
    <polygon points="631.3,193.5 655.3,204.3 655.3,211.8 631.3,201.0" fill="#FFF3B5" stroke="#0A0A0A" stroke-width="0.7"/>
    <polygon points="655.3,182.7 679.3,193.5 655.3,204.3 631.3,193.5" fill="#FFF3B5" stroke="#0A0A0A" stroke-width="0.7"/>
</g>
<g data-date="2026-07-11" data-count="0"><title>2026-07-11: 0 contributions</title>
    <polygon points="310.0,240.7 334.0,251.5 310.0,262.3 286.0,251.5" fill="#EAE4D4" stroke="#0A0A0A" stroke-width="0.7"/>
</g>
<g data-date="2026-07-17" data-count="0"><title>2026-07-17: 0 contributions</title>
    <polygon points="372.9,232.6 396.9,243.4 372.9,254.2 348.9,243.4" fill="#EAE4D4" stroke="#0A0A0A" stroke-width="0.7"/>
</g>
<g data-date="2026-07-23" data-count="0"><title>2026-07-23: 0 contributions</title>
    <polygon points="435.8,224.5 459.8,235.3 435.8,246.1 411.8,235.3" fill="#EAE4D4" stroke="#0A0A0A" stroke-width="0.7"/>
</g>
<g data-date="2026-07-29" data-count="0"><title>2026-07-29: 0 contributions</title>
    <polygon points="498.6,216.4 522.6,227.2 498.6,238.0 474.6,227.2" fill="#EAE4D4" stroke="#0A0A0A" stroke-width="0.7"/>
</g>
<g data-date="2026-08-04" data-count="4"><title>2026-08-04: 4 contributions</title>
    <polygon points="577.5,222.5 601.5,211.7 601.5,219.2 577.5,230.0" fill="#FFF3B5" stroke="#0A0A0A" stroke-width="0.7"/>
    <polygon points="553.5,211.7 577.5,222.5 577.5,230.0 553.5,219.2" fill="#FFF3B5" stroke="#0A0A0A" stroke-width="0.7"/>
    <polygon points="577.5,200.9 601.5,211.7 577.5,222.5 553.5,211.7" fill="#FFF3B5" stroke="#0A0A0A" stroke-width="0.7"/>
</g>
<g data-date="2026-08-10" data-count="5"><title>2026-08-10: 5 contributions</title>
    <polygon points="640.4,214.4 664.4,203.6 664.4,211.1 640.4,221.9" fill="#FFF3B5" stroke="#0A0A0A" stroke-width="0.7"/>
    <polygon points="616.4,203.6 640.4,214.4 640.4,221.9 616.4,211.1" fill="#FFF3B5" stroke="#0A0A0A" stroke-width="0.7"/>
    <polygon points="640.4,192.8 664.4,203.6 640.4,214.4 616.4,203.6" fill="#FFF3B5" stroke="#0A0A0A" stroke-width="0.7"/>
</g>
<g data-date="2026-08-16" data-count="0"><title>2026-08-16: 0 contributions</title>
    <polygon points="703.3,192.2 727.3,203.0 703.3,213.8 679.3,203.0" fill="#EAE4D4" stroke="#0A0A0A" stroke-width="0.7"/>
</g>
<g data-date="2026-07-18" data-count="0"><title>2026-07-18: 0 contributions</title>
    <polygon points="358.0,242.7 382.0,253.5 358.0,264.3 334.0,253.5" fill="#EAE4D4" stroke="#0A0A0A" stroke-width="0.7"/>
</g>
<g data-date="2026-07-24" data-count="10"><title>2026-07-24: 10 contributions</title>
    <polygon points="420.9,241.2 444.9,230.4 444.9,245.4 420.9,256.2" fill="#FFE066" stroke="#0A0A0A" stroke-width="0.7"/>
    <polygon points="396.9,230.4 420.9,241.2 420.9,256.2 396.9,245.4" fill="#FFE066" stroke="#0A0A0A" stroke-width="0.7"/>
    <polygon points="420.9,219.6 444.9,230.4 420.9,241.2 396.9,230.4" fill="#FFE066" stroke="#0A0A0A" stroke-width="0.7"/>
</g>
<g data-date="2026-07-30" data-count="0"><title>2026-07-30: 0 contributions</title>
    <polygon points="483.8,226.5 507.8,237.3 483.8,248.1 459.8,237.3" fill="#EAE4D4" stroke="#0A0A0A" stroke-width="0.7"/>
</g>
<g data-date="2026-08-05" data-count="0"><title>2026-08-05: 0 contributions</title>
    <polygon points="562.6,218.4 586.6,229.2 562.6,240.0 538.6,229.2" fill="#EAE4D4" stroke="#0A0A0A" stroke-width="0.7"/>
</g>
<g data-date="2026-08-11" data-count="0"><title>2026-08-11: 0 contributions</title>
    <polygon points="625.5,210.4 649.5,221.2 625.5,232.0 601.5,221.2" fill="#EAE4D4" stroke="#0A0A0A" stroke-width="0.7"/>
</g>
<g data-date="2026-08-17" data-count="0"><title>2026-08-17: 0 contributions</title>
    <polygon points="688.4,202.3 712.4,213.1 688.4,223.9 664.4,213.1" fill="#EAE4D4" stroke="#0A0A0A" stroke-width="0.7"/>
</g>
<g data-date="2026-08-23" data-count="18"><title>2026-08-23: 18 contributions</title>
    <polygon points="751.3,193.3 775.3,182.5 775.3,205.0 751.3,215.8" fill="#FFC700" stroke="#0A0A0A" stroke-width="0.7"/>
    <polygon points="727.3,182.5 751.3,193.3 751.3,215.8 727.3,205.0" fill="#FFC700" stroke="#0A0A0A" stroke-width="0.7"/>
    <polygon points="751.3,171.7 775.3,182.5 751.3,193.3 727.3,182.5" fill="#FFC700" stroke="#0A0A0A" stroke-width="0.7"/>
</g>
<g data-date="2026-07-25" data-count="16"><title>2026-07-25: 16 contributions</title>
    <polygon points="406.0,251.3 430.0,240.5 430.0,255.5 406.0,266.3" fill="#FFE066" stroke="#0A0A0A" stroke-width="0.7"/>
    <polygon points="382.0,240.5 406.0,251.3 406.0,266.3 382.0,255.5" fill="#FFE066" stroke="#0A0A0A" stroke-width="0.7"/>
    <polygon points="406.0,229.7 430.0,240.5 406.0,251.3 382.0,240.5" fill="#FFE066" stroke="#0A0A0A" stroke-width="0.7"/>
</g>
<g data-date="2026-07-31" data-count="1"><title>2026-07-31: 1 contributions</title>
    <polygon points="468.9,250.7 492.9,239.9 492.9,247.4 468.9,258.2" fill="#FFF3B5" stroke="#0A0A0A" stroke-width="0.7"/>
    <polygon points="444.9,239.9 468.9,250.7 468.9,258.2 444.9,247.4" fill="#FFF3B5" stroke="#0A0A0A" stroke-width="0.7"/>
    <polygon points="468.9,229.1 492.9,239.9 468.9,250.7 444.9,239.9" fill="#FFF3B5" stroke="#0A0A0A" stroke-width="0.7"/>
</g>
<g data-date="2026-08-06" data-count="1"><title>2026-08-06: 1 contributions</title>
    <polygon points="547.8,242.6 571.8,231.8 571.8,239.3 547.8,250.1" fill="#FFF3B5" stroke="#0A0A0A" stroke-width="0.7"/>
    <polygon points="523.8,231.8 547.8,242.6 547.8,250.1 523.8,239.3" fill="#FFF3B5" stroke="#0A0A0A" stroke-width="0.7"/>
    <polygon points="547.8,221.0 571.8,231.8 547.8,242.6 523.8,231.8" fill="#FFF3B5" stroke="#0A0A0A" stroke-width="0.7"/>
</g>
<g data-date="2026-08-12" data-count="0"><title>2026-08-12: 0 contributions</title>
    <polygon points="610.6,220.4 634.6,231.2 610.6,242.0 586.6,231.2" fill="#EAE4D4" stroke="#0A0A0A" stroke-width="0.7"/>
</g>
<g data-date="2026-08-18" data-count="4"><title>2026-08-18: 4 contributions</title>
    <polygon points="673.5,226.5 697.5,215.7 697.5,223.2 673.5,234.0" fill="#FFF3B5" stroke="#0A0A0A" stroke-width="0.7"/>
    <polygon points="649.5,215.7 673.5,226.5 673.5,234.0 649.5,223.2" fill="#FFF3B5" stroke="#0A0A0A" stroke-width="0.7"/>
    <polygon points="673.5,204.9 697.5,215.7 673.5,226.5 649.5,215.7" fill="#FFF3B5" stroke="#0A0A0A" stroke-width="0.7"/>
</g>
<g data-date="2026-08-24" data-count="0"><title>2026-08-24: 0 contributions</title>
    <polygon points="736.4,204.3 760.4,215.1 736.4,225.9 712.4,215.1" fill="#EAE4D4" stroke="#0A0A0A" stroke-width="0.7"/>
</g>
<g data-date="2026-08-30" data-count="0"><title>2026-08-30: 0 contributions</title>
    <polygon points="799.3,196.2 823.3,207.0 799.3,217.8 775.3,207.0" fill="#EAE4D4" stroke="#0A0A0A" stroke-width="0.7"/>
</g>
<g data-date="2026-08-01" data-count="0"><title>2026-08-01: 0 contributions</title>
    <polygon points="454.0,246.7 478.0,257.5 454.0,268.3 430.0,257.5" fill="#EAE4D4" stroke="#0A0A0A" stroke-width="0.7"/>
</g>
<g data-date="2026-08-07" data-count="0"><title>2026-08-07: 0 contributions</title>
    <polygon points="532.9,238.6 556.9,249.4 532.9,260.2 508.9,249.4" fill="#EAE4D4" stroke="#0A0A0A" stroke-width="0.7"/>
</g>
<g data-date="2026-08-13" data-count="0"><title>2026-08-13: 0 contributions</title>
    <polygon points="595.8,230.5 619.8,241.3 595.8,252.1 571.8,241.3" fill="#EAE4D4" stroke="#0A0A0A" stroke-width="0.7"/>
</g>
<g data-date="2026-08-19" data-count="0"><title>2026-08-19: 0 contributions</title>
    <polygon points="658.6,222.4 682.6,233.2 658.6,244.0 634.6,233.2" fill="#EAE4D4" stroke="#0A0A0A" stroke-width="0.7"/>
</g>
<g data-date="2026-08-25" data-count="0"><title>2026-08-25: 0 contributions</title>
    <polygon points="721.5,214.4 745.5,225.2 721.5,236.0 697.5,225.2" fill="#EAE4D4" stroke="#0A0A0A" stroke-width="0.7"/>
</g>
<g data-date="2026-08-31" data-count="0"><title>2026-08-31: 0 contributions</title>
    <polygon points="784.4,206.3 808.4,217.1 784.4,227.9 760.4,217.1" fill="#EAE4D4" stroke="#0A0A0A" stroke-width="0.7"/>
</g>
<g data-date="2026-09-06" data-count="1"><title>2026-09-06: 1 contributions</title>
    <polygon points="863.3,212.3 887.3,201.5 887.3,209.0 863.3,219.8" fill="#FFF3B5" stroke="#0A0A0A" stroke-width="0.7"/>
    <polygon points="839.3,201.5 863.3,212.3 863.3,219.8 839.3,209.0" fill="#FFF3B5" stroke="#0A0A0A" stroke-width="0.7"/>
    <polygon points="863.3,190.7 887.3,201.5 863.3,212.3 839.3,201.5" fill="#FFF3B5" stroke="#0A0A0A" stroke-width="0.7"/>
</g>
<g data-date="2026-08-08" data-count="47"><title>2026-08-08: 47 contributions</title>
    <polygon points="518.0,240.3 542.0,229.5 542.0,259.5 518.0,270.3" fill="#E5A800" stroke="#0A0A0A" stroke-width="0.7"/>
    <polygon points="494.0,229.5 518.0,240.3 518.0,270.3 494.0,259.5" fill="#E5A800" stroke="#0A0A0A" stroke-width="0.7"/>
    <polygon points="518.0,218.7 542.0,229.5 518.0,240.3 494.0,229.5" fill="#E5A800" stroke="#0A0A0A" stroke-width="0.7"/>
</g>
<g data-date="2026-08-14" data-count="0"><title>2026-08-14: 0 contributions</title>
    <polygon points="580.9,240.6 604.9,251.4 580.9,262.2 556.9,251.4" fill="#EAE4D4" stroke="#0A0A0A" stroke-width="0.7"/>
</g>
<g data-date="2026-08-20" data-count="0"><title>2026-08-20: 0 contributions</title>
    <polygon points="643.8,232.5 667.8,243.3 643.8,254.1 619.8,243.3" fill="#EAE4D4" stroke="#0A0A0A" stroke-width="0.7"/>
</g>
<g data-date="2026-08-26" data-count="0"><title>2026-08-26: 0 contributions</title>
    <polygon points="706.6,224.4 730.6,235.2 706.6,246.0 682.6,235.2" fill="#EAE4D4" stroke="#0A0A0A" stroke-width="0.7"/>
</g>
<g data-date="2026-09-01" data-count="0"><title>2026-09-01: 0 contributions</title>
    <polygon points="769.5,216.4 793.5,227.2 769.5,238.0 745.5,227.2" fill="#EAE4D4" stroke="#0A0A0A" stroke-width="0.7"/>
</g>
<g data-date="2026-09-07" data-count="0"><title>2026-09-07: 0 contributions</title>
    <polygon points="848.4,208.3 872.4,219.1 848.4,229.9 824.4,219.1" fill="#EAE4D4" stroke="#0A0A0A" stroke-width="0.7"/>
</g>
<g data-date="2026-09-13" data-count="7"><title>2026-09-13: 7 contributions</title>
    <polygon points="911.3,214.3 935.3,203.5 935.3,211.0 911.3,221.8" fill="#FFF3B5" stroke="#0A0A0A" stroke-width="0.7"/>
    <polygon points="887.3,203.5 911.3,214.3 911.3,221.8 887.3,211.0" fill="#FFF3B5" stroke="#0A0A0A" stroke-width="0.7"/>
    <polygon points="911.3,192.7 935.3,203.5 911.3,214.3 887.3,203.5" fill="#FFF3B5" stroke="#0A0A0A" stroke-width="0.7"/>
</g>
<g data-date="2026-08-15" data-count="0"><title>2026-08-15: 0 contributions</title>
    <polygon points="566.0,250.7 590.0,261.5 566.0,272.3 542.0,261.5" fill="#EAE4D4" stroke="#0A0A0A" stroke-width="0.7"/>
</g>
<g data-date="2026-08-21" data-count="21"><title>2026-08-21: 21 contributions</title>
    <polygon points="628.9,241.7 652.9,230.9 652.9,253.4 628.9,264.2" fill="#FFC700" stroke="#0A0A0A" stroke-width="0.7"/>
    <polygon points="604.9,230.9 628.9,241.7 628.9,264.2 604.9,253.4" fill="#FFC700" stroke="#0A0A0A" stroke-width="0.7"/>
    <polygon points="628.9,220.1 652.9,230.9 628.9,241.7 604.9,230.9" fill="#FFC700" stroke="#0A0A0A" stroke-width="0.7"/>
</g>
<g data-date="2026-08-27" data-count="0"><title>2026-08-27: 0 contributions</title>
    <polygon points="691.8,234.5 715.8,245.3 691.8,256.1 667.8,245.3" fill="#EAE4D4" stroke="#0A0A0A" stroke-width="0.7"/>
</g>
<g data-date="2026-09-02" data-count="4"><title>2026-09-02: 4 contributions</title>
    <polygon points="754.6,240.5 778.6,229.7 778.6,237.2 754.6,248.0" fill="#FFF3B5" stroke="#0A0A0A" stroke-width="0.7"/>
    <polygon points="730.6,229.7 754.6,240.5 754.6,248.0 730.6,237.2" fill="#FFF3B5" stroke="#0A0A0A" stroke-width="0.7"/>
    <polygon points="754.6,218.9 778.6,229.7 754.6,240.5 730.6,229.7" fill="#FFF3B5" stroke="#0A0A0A" stroke-width="0.7"/>
</g>
<g data-date="2026-09-08" data-count="0"><title>2026-09-08: 0 contributions</title>
    <polygon points="833.5,218.4 857.5,229.2 833.5,240.0 809.5,229.2" fill="#EAE4D4" stroke="#0A0A0A" stroke-width="0.7"/>
</g>
<g data-date="2026-09-14" data-count="2"><title>2026-09-14: 2 contributions</title>
    <polygon points="896.4,224.4 920.4,213.6 920.4,221.1 896.4,231.9" fill="#FFF3B5" stroke="#0A0A0A" stroke-width="0.7"/>
    <polygon points="872.4,213.6 896.4,224.4 896.4,231.9 872.4,221.1" fill="#FFF3B5" stroke="#0A0A0A" stroke-width="0.7"/>
    <polygon points="896.4,202.8 920.4,213.6 896.4,224.4 872.4,213.6" fill="#FFF3B5" stroke="#0A0A0A" stroke-width="0.7"/>
</g>
<g data-date="2026-09-20" data-count="0"><title>2026-09-20: 0 contributions</title>
    <polygon points="959.3,202.2 983.3,213.0 959.3,223.8 935.3,213.0" fill="#EAE4D4" stroke="#0A0A0A" stroke-width="0.7"/>
</g>
<g data-date="2026-08-22" data-count="13"><title>2026-08-22: 13 contributions</title>
    <polygon points="614.0,259.3 638.0,248.5 638.0,263.5 614.0,274.3" fill="#FFE066" stroke="#0A0A0A" stroke-width="0.7"/>
    <polygon points="590.0,248.5 614.0,259.3 614.0,274.3 590.0,263.5" fill="#FFE066" stroke="#0A0A0A" stroke-width="0.7"/>
    <polygon points="614.0,237.7 638.0,248.5 614.0,259.3 590.0,248.5" fill="#FFE066" stroke="#0A0A0A" stroke-width="0.7"/>
</g>
<g data-date="2026-08-28" data-count="0"><title>2026-08-28: 0 contributions</title>
    <polygon points="676.9,244.6 700.9,255.4 676.9,266.2 652.9,255.4" fill="#EAE4D4" stroke="#0A0A0A" stroke-width="0.7"/>
</g>
<g data-date="2026-09-03" data-count="5"><title>2026-09-03: 5 contributions</title>
    <polygon points="739.8,250.6 763.8,239.8 763.8,247.3 739.8,258.1" fill="#FFF3B5" stroke="#0A0A0A" stroke-width="0.7"/>
    <polygon points="715.8,239.8 739.8,250.6 739.8,258.1 715.8,247.3" fill="#FFF3B5" stroke="#0A0A0A" stroke-width="0.7"/>
    <polygon points="739.8,229.0 763.8,239.8 739.8,250.6 715.8,239.8" fill="#FFF3B5" stroke="#0A0A0A" stroke-width="0.7"/>
</g>
<g data-date="2026-09-09" data-count="0"><title>2026-09-09: 0 contributions</title>
    <polygon points="818.6,228.4 842.6,239.2 818.6,250.0 794.6,239.2" fill="#EAE4D4" stroke="#0A0A0A" stroke-width="0.7"/>
</g>
<g data-date="2026-09-15" data-count="32"><title>2026-09-15: 32 contributions</title>
    <polygon points="881.5,212.0 905.5,201.2 905.5,231.2 881.5,242.0" fill="#E5A800" stroke="#0A0A0A" stroke-width="0.7"/>
    <polygon points="857.5,201.2 881.5,212.0 881.5,242.0 857.5,231.2" fill="#E5A800" stroke="#0A0A0A" stroke-width="0.7"/>
    <polygon points="881.5,190.4 905.5,201.2 881.5,212.0 857.5,201.2" fill="#E5A800" stroke="#0A0A0A" stroke-width="0.7"/>
</g>
<g data-date="2026-09-21" data-count="0"><title>2026-09-21: 0 contributions</title>
    <polygon points="944.4,212.3 968.4,223.1 944.4,233.9 920.4,223.1" fill="#EAE4D4" stroke="#0A0A0A" stroke-width="0.7"/>
</g>
<g data-date="2026-09-27" data-count="0"><title>2026-09-27: 0 contributions</title>
    <polygon points="1007.3,204.2 1031.3,215.0 1007.3,225.8 983.3,215.0" fill="#EAE4D4" stroke="#0A0A0A" stroke-width="0.7"/>
</g>
<g data-date="2026-08-29" data-count="0"><title>2026-08-29: 0 contributions</title>
    <polygon points="662.0,254.7 686.0,265.5 662.0,276.3 638.0,265.5" fill="#EAE4D4" stroke="#0A0A0A" stroke-width="0.7"/>
</g>
<g data-date="2026-09-04" data-count="0"><title>2026-09-04: 0 contributions</title>
    <polygon points="724.9,246.6 748.9,257.4 724.9,268.2 700.9,257.4" fill="#EAE4D4" stroke="#0A0A0A" stroke-width="0.7"/>
</g>
<g data-date="2026-09-10" data-count="0"><title>2026-09-10: 0 contributions</title>
    <polygon points="803.8,238.5 827.8,249.3 803.8,260.1 779.8,249.3" fill="#EAE4D4" stroke="#0A0A0A" stroke-width="0.7"/>
</g>
<g data-date="2026-09-16" data-count="1"><title>2026-09-16: 1 contributions</title>
    <polygon points="866.6,244.5 890.6,233.7 890.6,241.2 866.6,252.0" fill="#FFF3B5" stroke="#0A0A0A" stroke-width="0.7"/>
    <polygon points="842.6,233.7 866.6,244.5 866.6,252.0 842.6,241.2" fill="#FFF3B5" stroke="#0A0A0A" stroke-width="0.7"/>
    <polygon points="866.6,222.9 890.6,233.7 866.6,244.5 842.6,233.7" fill="#FFF3B5" stroke="#0A0A0A" stroke-width="0.7"/>
</g>
<g data-date="2026-09-22" data-count="0"><title>2026-09-22: 0 contributions</title>
    <polygon points="929.5,222.4 953.5,233.2 929.5,244.0 905.5,233.2" fill="#EAE4D4" stroke="#0A0A0A" stroke-width="0.7"/>
</g>
<g data-date="2026-09-28" data-count="0"><title>2026-09-28: 0 contributions</title>
    <polygon points="992.4,214.3 1016.4,225.1 992.4,235.9 968.4,225.1" fill="#EAE4D4" stroke="#0A0A0A" stroke-width="0.7"/>
</g>
<g data-date="2026-10-04" data-count="2"><title>2026-10-04: 2 contributions</title>
    <polygon points="1071.3,220.3 1095.3,209.5 1095.3,217.0 1071.3,227.8" fill="#FFF3B5" stroke="#0A0A0A" stroke-width="0.7"/>
    <polygon points="1047.3,209.5 1071.3,220.3 1071.3,227.8 1047.3,217.0" fill="#FFF3B5" stroke="#0A0A0A" stroke-width="0.7"/>
    <polygon points="1071.3,198.7 1095.3,209.5 1071.3,220.3 1047.3,209.5" fill="#FFF3B5" stroke="#0A0A0A" stroke-width="0.7"/>
</g>
<g data-date="2026-09-05" data-count="0"><title>2026-09-05: 0 contributions</title>
    <polygon points="710.0,256.7 734.0,267.5 710.0,278.3 686.0,267.5" fill="#EAE4D4" stroke="#0A0A0A" stroke-width="0.7"/>
</g>
<g data-date="2026-09-11" data-count="0"><title>2026-09-11: 0 contributions</title>
    <polygon points="788.9,248.6 812.9,259.4 788.9,270.2 764.9,259.4" fill="#EAE4D4" stroke="#0A0A0A" stroke-width="0.7"/>
</g>
<g data-date="2026-09-17" data-count="1"><title>2026-09-17: 1 contributions</title>
    <polygon points="851.8,254.6 875.8,243.8 875.8,251.3 851.8,262.1" fill="#FFF3B5" stroke="#0A0A0A" stroke-width="0.7"/>
    <polygon points="827.8,243.8 851.8,254.6 851.8,262.1 827.8,251.3" fill="#FFF3B5" stroke="#0A0A0A" stroke-width="0.7"/>
    <polygon points="851.8,233.0 875.8,243.8 851.8,254.6 827.8,243.8" fill="#FFF3B5" stroke="#0A0A0A" stroke-width="0.7"/>
</g>
<g data-date="2026-09-23" data-count="0"><title>2026-09-23: 0 contributions</title>
    <polygon points="914.6,232.4 938.6,243.2 914.6,254.0 890.6,243.2" fill="#EAE4D4" stroke="#0A0A0A" stroke-width="0.7"/>
</g>
<g data-date="2026-09-29" data-count="0"><title>2026-09-29: 0 contributions</title>
    <polygon points="977.5,224.4 1001.5,235.2 977.5,246.0 953.5,235.2" fill="#EAE4D4" stroke="#0A0A0A" stroke-width="0.7"/>
</g>
<g data-date="2026-10-05" data-count="1"><title>2026-10-05: 1 contributions</title>
    <polygon points="1056.4,230.4 1080.4,219.6 1080.4,227.1 1056.4,237.9" fill="#FFF3B5" stroke="#0A0A0A" stroke-width="0.7"/>
    <polygon points="1032.4,219.6 1056.4,230.4 1056.4,237.9 1032.4,227.1" fill="#FFF3B5" stroke="#0A0A0A" stroke-width="0.7"/>
    <polygon points="1056.4,208.8 1080.4,219.6 1056.4,230.4 1032.4,219.6" fill="#FFF3B5" stroke="#0A0A0A" stroke-width="0.7"/>
</g>
<g data-date="2026-09-12" data-count="10"><title>2026-09-12: 10 contributions</title>
    <polygon points="774.0,265.3 798.0,254.5 798.0,269.5 774.0,280.3" fill="#FFE066" stroke="#0A0A0A" stroke-width="0.7"/>
    <polygon points="750.0,254.5 774.0,265.3 774.0,280.3 750.0,269.5" fill="#FFE066" stroke="#0A0A0A" stroke-width="0.7"/>
    <polygon points="774.0,243.7 798.0,254.5 774.0,265.3 750.0,254.5" fill="#FFE066" stroke="#0A0A0A" stroke-width="0.7"/>
</g>
<g data-date="2026-09-18" data-count="0"><title>2026-09-18: 0 contributions</title>
    <polygon points="836.9,250.6 860.9,261.4 836.9,272.2 812.9,261.4" fill="#EAE4D4" stroke="#0A0A0A" stroke-width="0.7"/>
</g>
<g data-date="2026-09-24" data-count="10"><title>2026-09-24: 10 contributions</title>
    <polygon points="899.8,249.1 923.8,238.3 923.8,253.3 899.8,264.1" fill="#FFE066" stroke="#0A0A0A" stroke-width="0.7"/>
    <polygon points="875.8,238.3 899.8,249.1 899.8,264.1 875.8,253.3" fill="#FFE066" stroke="#0A0A0A" stroke-width="0.7"/>
    <polygon points="899.8,227.5 923.8,238.3 899.8,249.1 875.8,238.3" fill="#FFE066" stroke="#0A0A0A" stroke-width="0.7"/>
</g>
<g data-date="2026-09-30" data-count="0"><title>2026-09-30: 0 contributions</title>
    <polygon points="962.6,234.4 986.6,245.2 962.6,256.0 938.6,245.2" fill="#EAE4D4" stroke="#0A0A0A" stroke-width="0.7"/>
</g>
<g data-date="2026-10-06" data-count="5"><title>2026-10-06: 5 contributions</title>
    <polygon points="1041.5,240.5 1065.5,229.7 1065.5,237.2 1041.5,248.0" fill="#FFF3B5" stroke="#0A0A0A" stroke-width="0.7"/>
    <polygon points="1017.5,229.7 1041.5,240.5 1041.5,248.0 1017.5,237.2" fill="#FFF3B5" stroke="#0A0A0A" stroke-width="0.7"/>
    <polygon points="1041.5,218.9 1065.5,229.7 1041.5,240.5 1017.5,229.7" fill="#FFF3B5" stroke="#0A0A0A" stroke-width="0.7"/>
</g>
<g data-date="2026-09-19" data-count="0"><title>2026-09-19: 0 contributions</title>
    <polygon points="822.0,260.7 846.0,271.5 822.0,282.3 798.0,271.5" fill="#EAE4D4" stroke="#0A0A0A" stroke-width="0.7"/>
</g>
<g data-date="2026-09-25" data-count="1"><title>2026-09-25: 1 contributions</title>
    <polygon points="884.9,266.7 908.9,255.9 908.9,263.4 884.9,274.2" fill="#FFF3B5" stroke="#0A0A0A" stroke-width="0.7"/>
    <polygon points="860.9,255.9 884.9,266.7 884.9,274.2 860.9,263.4" fill="#FFF3B5" stroke="#0A0A0A" stroke-width="0.7"/>
    <polygon points="884.9,245.1 908.9,255.9 884.9,266.7 860.9,255.9" fill="#FFF3B5" stroke="#0A0A0A" stroke-width="0.7"/>
</g>
<g data-date="2026-10-01" data-count="6"><title>2026-10-01: 6 contributions</title>
    <polygon points="947.8,258.6 971.8,247.8 971.8,255.3 947.8,266.1" fill="#FFF3B5" stroke="#0A0A0A" stroke-width="0.7"/>
    <polygon points="923.8,247.8 947.8,258.6 947.8,266.1 923.8,255.3" fill="#FFF3B5" stroke="#0A0A0A" stroke-width="0.7"/>
    <polygon points="947.8,237.0 971.8,247.8 947.8,258.6 923.8,247.8" fill="#FFF3B5" stroke="#0A0A0A" stroke-width="0.7"/>
</g>
<g data-date="2026-10-07" data-count="11"><title>2026-10-07: 11 contributions</title>
    <polygon points="1026.6,243.0 1050.6,232.2 1050.6,247.2 1026.6,258.0" fill="#FFE066" stroke="#0A0A0A" stroke-width="0.7"/>
    <polygon points="1002.6,232.2 1026.6,243.0 1026.6,258.0 1002.6,247.2" fill="#FFE066" stroke="#0A0A0A" stroke-width="0.7"/>
    <polygon points="1026.6,221.4 1050.6,232.2 1026.6,243.0 1002.6,232.2" fill="#FFE066" stroke="#0A0A0A" stroke-width="0.7"/>
</g>
<g data-date="2026-09-26" data-count="2"><title>2026-09-26: 2 contributions</title>
    <polygon points="870.0,276.8 894.0,266.0 894.0,273.5 870.0,284.3" fill="#FFF3B5" stroke="#0A0A0A" stroke-width="0.7"/>
    <polygon points="846.0,266.0 870.0,276.8 870.0,284.3 846.0,273.5" fill="#FFF3B5" stroke="#0A0A0A" stroke-width="0.7"/>
    <polygon points="870.0,255.2 894.0,266.0 870.0,276.8 846.0,266.0" fill="#FFF3B5" stroke="#0A0A0A" stroke-width="0.7"/>
</g>
<g data-date="2026-10-02" data-count="12"><title>2026-10-02: 12 contributions</title>
    <polygon points="932.9,261.2 956.9,250.4 956.9,265.4 932.9,276.2" fill="#FFE066" stroke="#0A0A0A" stroke-width="0.7"/>
    <polygon points="908.9,250.4 932.9,261.2 932.9,276.2 908.9,265.4" fill="#FFE066" stroke="#0A0A0A" stroke-width="0.7"/>
    <polygon points="932.9,239.6 956.9,250.4 932.9,261.2 908.9,250.4" fill="#FFE066" stroke="#0A0A0A" stroke-width="0.7"/>
</g>
<g data-date="2026-10-03" data-count="18"><title>2026-10-03: 18 contributions</title>
    <polygon points="918.0,263.8 942.0,253.0 942.0,275.5 918.0,286.3" fill="#FFC700" stroke="#0A0A0A" stroke-width="0.7"/>
    <polygon points="894.0,253.0 918.0,263.8 918.0,286.3 894.0,275.5" fill="#FFC700" stroke="#0A0A0A" stroke-width="0.7"/>
    <polygon points="918.0,242.2 942.0,253.0 918.0,263.8 894.0,253.0" fill="#FFC700" stroke="#0A0A0A" stroke-width="0.7"/>
</g>
  </g>
  <g>
    <text x="263.3" y="126.0" text-anchor="middle" fill="#0A0A0A" font-family="monospace" font-size="13" font-weight="800">JUN</text>
    <text x="471.3" y="134.0" text-anchor="middle" fill="#0A0A0A" font-family="monospace" font-size="13" font-weight="800">JUL</text>
    <text x="703.3" y="143.0" text-anchor="middle" fill="#0A0A0A" font-family="monospace" font-size="13" font-weight="800">AUG</text>
    <text x="935.3" y="152.0" text-anchor="middle" fill="#0A0A0A" font-family="monospace" font-size="13" font-weight="800">SEP</text>
    <text x="1071.3" y="157.0" text-anchor="middle" fill="#0A0A0A" font-family="monospace" font-size="13" font-weight="800">OCT</text>
  </g>
  <path d="M48 314 H1124" stroke="#0A0A0A" stroke-width="2"/>
  <text x="48" y="342" fill="#0A0A0A" font-family="monospace" font-size="11" font-weight="700">LESS</text>
  <g transform="translate(92 331)">
    <rect x="0" y="-10" width="14" height="14" fill="#EAE4D4" stroke="#0A0A0A" stroke-width="1"/>
    <rect x="21" y="-10" width="14" height="14" fill="#FFF3B5" stroke="#0A0A0A" stroke-width="1"/>
    <rect x="42" y="-10" width="14" height="14" fill="#FFE066" stroke="#0A0A0A" stroke-width="1"/>
    <rect x="63" y="-10" width="14" height="14" fill="#FFC700" stroke="#0A0A0A" stroke-width="1"/>
    <rect x="84" y="-10" width="14" height="14" fill="#E5A800" stroke="#0A0A0A" stroke-width="1"/>
  </g>
  <text x="193" y="342" fill="#0A0A0A" font-family="monospace" font-size="11" font-weight="700">MORE</text>
<text x="1124" y="342" text-anchor="end" fill="#0A0A0A" font-family="monospace" font-size="11">2026-06-10 — 2026-10-07</text>
<text x="1124" y="358" text-anchor="end" fill="#7A7570" font-family="monospace" font-size="10">UPDATED 2026-10-07 21:58 UTC</text>
</svg>